<?xml version="1.0" encoding="UTF-8" standalone="no"?>
<svg
   class="icon"
   viewBox="-78.1 -1 16 16"
   version="1.1"
   id="svg2"
   sodipodi:docname="Icon.svg"
   inkscape:version="1.4.2 (f4327f4, 2025-05-13)"
   inkscape:export-filename="Icon.png"
   inkscape:export-xdpi="3072"
   inkscape:export-ydpi="3072"
   xmlns:inkscape="http://www.inkscape.org/namespaces/inkscape"
   xmlns:sodipodi="http://sodipodi.sourceforge.net/DTD/sodipodi-0.dtd"
   xmlns="http://www.w3.org/2000/svg"
   xmlns:svg="http://www.w3.org/2000/svg">
  <defs
     id="defs2">
    <filter
       style="color-interpolation-filters:sRGB;"
       inkscape:label="Drop Shadow"
       id="filter8"
       x="-0.11215868"
       y="-0.10673582"
       width="1.2063773"
       height="1.2134719">
      <feFlood
         result="flood"
         in="SourceGraphic"
         flood-opacity="0.501961"
         flood-color="rgb(255,255,255)"
         id="feFlood7" />
      <feGaussianBlur
         result="blur"
         in="SourceGraphic"
         stdDeviation="0.500000"
         id="feGaussianBlur7" />
      <feOffset
         result="offset"
         in="blur"
         dx="0.000000"
         dy="0.000000"
         id="feOffset7" />
      <feComposite
         result="comp1"
         operator="in"
         in="flood"
         in2="offset"
         id="feComposite7" />
      <feComposite
         result="comp2"
         operator="over"
         in="SourceGraphic"
         in2="comp1"
         id="feComposite8" />
    </filter>
  </defs>
  <sodipodi:namedview
     id="namedview2"
     pagecolor="#2d2d2d"
     bordercolor="#666666"
     borderopacity="1.0"
     inkscape:showpageshadow="2"
     inkscape:pageopacity="0.0"
     inkscape:pagecheckerboard="0"
     inkscape:deskcolor="#d1d1d1"
     inkscape:zoom="29.84375"
     inkscape:cx="1.0722513"
     inkscape:cy="4.0041885"
     inkscape:current-layer="svg2" />
  <g
     id="g2"
     style="filter:url(#filter8)">
    <path
       fill="none"
       stroke="#000"
       stroke-width=".380725"
       d="m-73.308 13.853-3.046-10.66L-69.5.147l3.045 10.66z"
       id="path2"
       style="fill:#ffffff;fill-opacity:1" />
    <path
       d="m-70.625 7.7-.227.115q-.233-.495-.315-.802-.08-.315-.074-.513.004-.216.138-.828.105-.48.075-.832-.033-.362-.206-.728-.233-.494-.662-.652-.424-.16-.838.048-.351.177-.511.471-.153.284-.069.463.049.103.276.148.342.067.448.29.095.202.027.4-.073.202-.274.304-.237.118-.492.014-.25-.106-.394-.413-.226-.48.045-1.093t.957-.957q.704-.354 1.36-.152.664.193.955.81.187.396.18.79-.007.304-.288.976-.363.868-.375 1.198-.011.335.26.95zm.327.96q.212-.106.428-.03.221.072.316.274.103.218.027.452-.082.225-.293.33-.211.107-.432.034-.224-.077-.328-.3-.098-.207-.015-.426.081-.224.293-.331zM-64.096 3.997c-.588-.43-.624-.433-1.018.106l1.229.895c.392-.54.378-.572-.21-1.001zm-1.108.228-3.544 4.86-.127.756.677.495.681-.353 3.543-4.862zm-3.698 5.784-.128.756.68-.353z"
       id="path1" />
  </g>
</svg>
